<svg width="125" height="30" viewBox="0 0 125 30" fill="none" xmlns="http://www.w3.org/2000/svg">
<path d="M30.66 16.42C30.66 15.3 30.88 14.3067 31.32 13.44C31.7733 12.5733 32.38 11.9067 33.14 11.44C33.9133 10.9733 34.7733 10.74 35.72 10.74C36.5467 10.74 37.2667 10.9067 37.88 11.24C38.5067 11.5733 39.0067 11.9933 39.38 12.5V10.92H42.2V22H39.38V20.38C39.02 20.9 38.52 21.3333 37.88 21.68C37.2533 22.0133 36.5267 22.18 35.7 22.18C34.7667 22.18 33.9133 21.94 33.14 21.46C32.38 20.98 31.7733 20.3067 31.32 19.44C30.88 18.56 30.66 17.5533 30.66 16.42ZM39.38 16.46C39.38 15.78 39.2467 15.2 38.98 14.72C38.7133 14.2267 38.3533 13.8533 37.9 13.6C37.4467 13.3333 36.96 13.2 36.44 13.2C35.92 13.2 35.44 13.3267 35 13.58C34.56 13.8333 34.2 14.2067 33.92 14.7C33.6533 15.18 33.52 15.7533 33.52 16.42C33.52 17.0867 33.6533 17.6733 33.92 18.18C34.2 18.6733 34.56 19.0533 35 19.32C35.4533 19.5867 35.9333 19.72 36.44 19.72C36.96 19.72 37.4467 19.5933 37.9 19.34C38.3533 19.0733 38.7133 18.7 38.98 18.22C39.2467 17.7267 39.38 17.14 39.38 16.46ZM47.7347 7.2V22H44.9347V7.2H47.7347ZM57.0611 22L53.3011 17.28V22H50.5011V7.2H53.3011V15.62L57.0211 10.92H60.6611L55.7811 16.48L60.7011 22H57.0611ZM72.7808 10.92L65.9208 27.24H62.9408L65.3408 21.72L60.9008 10.92H64.0408L66.9008 18.66L69.8008 10.92H72.7808ZM82.2102 14.84C82.9968 14.9867 83.6435 15.38 84.1502 16.02C84.6568 16.66 84.9102 17.3933 84.9102 18.22C84.9102 18.9667 84.7235 19.6267 84.3502 20.2C83.9902 20.76 83.4635 21.2 82.7702 21.52C82.0768 21.84 81.2568 22 80.3102 22H74.2902V8.04H80.0502C80.9968 8.04 81.8102 8.19333 82.4902 8.5C83.1835 8.80667 83.7035 9.23333 84.0502 9.78C84.4102 10.3267 84.5902 10.9467 84.5902 11.64C84.5902 12.4533 84.3702 13.1333 83.9302 13.68C83.5035 14.2267 82.9302 14.6133 82.2102 14.84ZM77.0902 13.8H79.6502C80.3168 13.8 80.8302 13.6533 81.1902 13.36C81.5502 13.0533 81.7302 12.62 81.7302 12.06C81.7302 11.5 81.5502 11.0667 81.1902 10.76C80.8302 10.4533 80.3168 10.3 79.6502 10.3H77.0902V13.8ZM79.9102 19.72C80.5902 19.72 81.1168 19.56 81.4902 19.24C81.8768 18.92 82.0702 18.4667 82.0702 17.88C82.0702 17.28 81.8702 16.8133 81.4702 16.48C81.0702 16.1333 80.5302 15.96 79.8502 15.96H77.0902V19.72H79.9102ZM86.4217 16.42C86.4217 15.3 86.6417 14.3067 87.0817 13.44C87.5351 12.5733 88.1417 11.9067 88.9017 11.44C89.6751 10.9733 90.5351 10.74 91.4817 10.74C92.3084 10.74 93.0284 10.9067 93.6417 11.24C94.2684 11.5733 94.7684 11.9933 95.1417 12.5V10.92H97.9617V22H95.1417V20.38C94.7817 20.9 94.2817 21.3333 93.6417 21.68C93.0151 22.0133 92.2884 22.18 91.4617 22.18C90.5284 22.18 89.6751 21.94 88.9017 21.46C88.1417 20.98 87.5351 20.3067 87.0817 19.44C86.6417 18.56 86.4217 17.5533 86.4217 16.42ZM95.1417 16.46C95.1417 15.78 95.0084 15.2 94.7417 14.72C94.4751 14.2267 94.1151 13.8533 93.6617 13.6C93.2084 13.3333 92.7217 13.2 92.2017 13.2C91.6817 13.2 91.2017 13.3267 90.7617 13.58C90.3217 13.8333 89.9617 14.2067 89.6817 14.7C89.4151 15.18 89.2817 15.7533 89.2817 16.42C89.2817 17.0867 89.4151 17.6733 89.6817 18.18C89.9617 18.6733 90.3217 19.0533 90.7617 19.32C91.2151 19.5867 91.6951 19.72 92.2017 19.72C92.7217 19.72 93.2084 19.5933 93.6617 19.34C94.1151 19.0733 94.4751 18.7 94.7417 18.22C95.0084 17.7267 95.1417 17.14 95.1417 16.46ZM106.836 10.76C108.156 10.76 109.223 11.18 110.036 12.02C110.85 12.8467 111.256 14.0067 111.256 15.5V22H108.456V15.88C108.456 15 108.236 14.3267 107.796 13.86C107.356 13.38 106.756 13.14 105.996 13.14C105.223 13.14 104.61 13.38 104.156 13.86C103.716 14.3267 103.496 15 103.496 15.88V22H100.696V10.92H103.496V12.3C103.87 11.82 104.343 11.4467 104.916 11.18C105.503 10.9 106.143 10.76 106.836 10.76ZM120.479 22L116.719 17.28V22H113.919V7.2H116.719V15.62L120.439 10.92H124.079L119.199 16.48L124.119 22H120.479Z" fill="#374151"/>
<path d="M10.2582 4.72583C4.48777 4.73847 0 4.81326 0 4.90797V25.5389C0 25.5461 0.0311246 25.5531 0.0806839 25.5601L10.2582 4.72583ZM13.4227 4.72583L14.9271 7.80479L16.461 10.9446L23.6002 25.5601C23.6497 25.5531 23.6809 25.546 23.6809 25.5389V4.90797C23.6809 4.81326 19.1931 4.73847 13.4227 4.72583ZM11.8404 7.76856L3.09973 25.6645C5.26265 25.7021 8.35586 25.7258 11.8404 25.7258C15.3255 25.7258 18.4187 25.7021 20.5816 25.6645L14.9271 14.0869L13.3932 10.9465L11.8404 7.76856Z" fill="#5EDCA7"/>
</svg>
