<?xml version="1.0" encoding="UTF-8" standalone="no"?>
<!-- Created with Inkscape (http://www.inkscape.org/) -->

<svg
   xmlns:dc="http://purl.org/dc/elements/1.1/"
   xmlns:cc="http://creativecommons.org/ns#"
   xmlns:rdf="http://www.w3.org/1999/02/22-rdf-syntax-ns#"
   xmlns:svg="http://www.w3.org/2000/svg"
   xmlns="http://www.w3.org/2000/svg"
   xmlns:sodipodi="http://sodipodi.sourceforge.net/DTD/sodipodi-0.dtd"
   xmlns:inkscape="http://www.inkscape.org/namespaces/inkscape"
   width="240"
   height="46"
   viewBox="0 0 63.499972 12.170845"
   version="1.1"
   id="svg5811"
   inkscape:version="0.92.3 (2405546, 2018-03-11)"
   sodipodi:docname="LogoAlkyBank.svg">
  <defs
     id="defs5805" />
  <sodipodi:namedview
     id="base"
     pagecolor="#ffffff"
     bordercolor="#666666"
     borderopacity="1.0"
     inkscape:pageopacity="0.0"
     inkscape:pageshadow="2"
     inkscape:zoom="2.2640625"
     inkscape:cx="112.00636"
     inkscape:cy="-34.589372"
     inkscape:document-units="mm"
     inkscape:current-layer="layer1"
     showgrid="false"
     units="px"
     inkscape:window-width="1920"
     inkscape:window-height="1001"
     inkscape:window-x="-9"
     inkscape:window-y="-9"
     inkscape:window-maximized="1" />
  <metadata
     id="metadata5808">
    <rdf:RDF>
      <cc:Work
         rdf:about="">
        <dc:format>image/svg+xml</dc:format>
        <dc:type
           rdf:resource="http://purl.org/dc/dcmitype/StillImage" />
        <dc:title></dc:title>
      </cc:Work>
    </rdf:RDF>
  </metadata>
  <g
     inkscape:label="Capa 1"
     inkscape:groupmode="layer"
     id="layer1"
     transform="translate(0,-284.8291)"
     style="display:inline">
    <g
       inkscape:label="Capa 1"
       id="layer1-2"
       style="display:none"
       transform="translate(-304.35694,134.77995)">
      <path
         style="fill:#222222;stroke-width:0.89856076"
         inkscape:connector-curvature="0"
         d="m 72.147114,50.613519 c -3.216847,0 -5.823752,-2.515341 -5.823752,-5.616544 0,-3.069035 2.55344,-5.562837 5.723563,-5.612204 0.03343,-0.0021 0.06685,-0.0021 0.100189,-0.0021 0.03325,0 0.06685,0 0.10019,0.0021 3.170122,0.04937 5.723652,2.543169 5.723652,5.612204 0,3.101203 -2.606904,5.616544 -5.823842,5.616544 z m 5.823842,-14.089002 v 2.134864 c -1.549478,-1.324183 -3.588851,-2.128996 -5.823842,-2.128996 -4.85088,0 -8.782443,3.792277 -8.782443,8.46659 0,4.67647 3.931563,8.468755 8.782443,8.468755 2.234991,0 4.274364,-0.80484 5.823842,-2.12896 v 2.121413 H 80.9407 V 36.524517 Z"
         id="path843" />
      <path
         style="fill:#222222;stroke-width:0.89856076"
         inkscape:connector-curvature="0"
         d="m 72.247214,39.384573 c -0.03334,-0.0021 -0.06694,-0.0021 -0.1001,-0.0021 -0.03343,0 -0.06676,0 -0.100189,0.0021 0.03343,0.002 0.06676,0.0043 0.100189,0.0043 0.03316,0 0.06676,-0.0023 0.1001,-0.0043 z"
         id="path845" />
      <path
         style="fill:#222222;stroke-width:0.89856076"
         inkscape:connector-curvature="0"
         d="m 97.06735,44.952047 8.79134,-8.475028 h -4.20086 l -7.330911,7.067253 H 92.826413 V 30.991576 h -2.969744 v 22.467595 h 2.969744 v -7.051905 h 1.469326 l 0.630071,0.609404 6.63183,6.39344 h 4.20095 l -8.731226,-8.417179 z"
         id="path847" />
      <path
         style="fill:#222222;stroke-width:0.89856076"
         inkscape:connector-curvature="0"
         d="m 151.8269,45.00003 v 8.458063 h -2.96974 v -9.848766 c 0,-2.332843 -1.96156,-4.225805 -4.38408,-4.225805 -2.41982,0 -4.38318,1.892962 -4.38318,4.225805 v 1.390703 8.458063 h -2.96974 V 45.00003 l 0.009,-1.287728 c 0.003,-0.03433 0.003,-0.06865 0.003,-0.102975 0,-0.03433 0,-0.06865 -0.003,-0.103065 0,-0.06002 -0.002,-0.117981 -0.009,-0.175938 -0.14647,-2.202013 -2.05052,-3.946802 -4.3724,-3.946802 -2.41982,0 -4.38318,1.892962 -4.38318,4.225805 v 9.848766 h -2.96974 V 36.52484 h 2.96974 v 1.395007 c 1.22205,-0.877777 2.73792,-1.395007 4.37869,-1.395007 h 0.007 c 1.63807,0.0021 3.14766,0.519378 4.3697,1.392859 0.5634,0.403481 1.0639,0.882073 1.48981,1.422907 0.42053,-0.538687 0.92103,-1.01514 1.47993,-1.416473 1.22474,-0.879924 2.74061,-1.399293 4.38318,-1.399293 1.64347,0 3.15934,0.519369 4.38408,1.399293 1.79892,1.289848 2.96525,3.356574 2.96525,5.685194 z"
         id="path849" />
      <path
         style="fill:#222222;stroke-width:0.89856076"
         inkscape:connector-curvature="0"
         d="m 86.885758,30.990335 h -2.969744 v 22.467758 h 2.969744 z"
         id="path851" />
      <path
         style="fill:#222222;stroke-width:0.89856076"
         inkscape:connector-curvature="0"
         d="m 107.99196,43.552628 c 0.65227,-2.369145 2.87405,-4.122741 5.52768,-4.165521 0.0333,-0.0021 0.0668,-0.0021 0.10019,-0.0021 0.0333,0 0.0668,-9e-6 0.10019,0.0021 2.65417,0.04278 4.87721,1.796376 5.52956,4.165521 z m 14.28757,2.863174 c 0.08,-0.461411 0.1231,-0.933604 0.1231,-1.416491 0,-0.493579 -0.0449,-0.976466 -0.12939,-1.446683 -0.70986,-3.985387 -4.31489,-7.020051 -8.65341,-7.020051 -4.84872,0 -8.78244,3.792421 -8.78244,8.466734 0,4.67647 3.93372,8.468576 8.78244,8.468576 3.23239,0 6.05567,-1.682555 7.58053,-4.18927 h -3.8117 c -1.01447,0.835032 -2.33293,1.337238 -3.76883,1.337238 -1.43815,0 -2.75382,-0.502206 -3.76901,-1.337238 -0.89937,-0.733855 -1.56278,-1.72964 -1.86775,-2.862815 z"
         id="path853" />
      <path
         style="fill:#222222;stroke-width:0.89856076"
         inkscape:connector-curvature="0"
         d="m 154.953,60.503528 v 0.0022 h -0.0818 c 0.0261,0 0.0557,0 0.0818,-0.0022 z"
         id="path855" />
      <path
         style="fill:#222222;stroke-width:0.89856076"
         inkscape:connector-curvature="0"
         d="m 166.0664,36.52484 -3.4388,7.041536 -1.40085,2.862994 -0.32618,0.671585 -0.32977,-0.671585 -1.39816,-2.862994 -3.43969,-7.041536 h -3.28334 l 3.43879,7.041536 1.39816,2.862994 1.06389,2.176225 0.33697,0.68677 0.56968,1.169656 -1.46285,2.995982 -0.86532,1.77277 c -0.009,0.02561 -0.0225,0.05149 -0.0359,0.07728 -0.70807,1.388546 -2.18889,2.343626 -3.90065,2.343626 h -1.16544 v 2.774216 c 0.3738,0.05643 0.75569,0.0886 1.14567,0.0886 0.49421,0 0.97763,-0.04709 1.44219,-0.137211 1.06479,-0.203883 2.04872,-0.630969 2.89247,-1.225457 0.0485,-0.03235 0.0952,-0.06658 0.14197,-0.103065 0.53913,-0.401297 1.01986,-0.871334 1.42512,-1.397082 0.23182,-0.300479 0.43759,-0.620277 0.62,-0.95508 l 0.23902,-0.489357 c 0.004,-0.0064 0.006,-0.01285 0.009,-0.01932 l 1.15465,-2.367168 0.17791,-0.362749 1.46555,-2.998138 0.56969,-1.1675 1.39816,-2.862995 1.40086,-2.862994 3.43879,-7.041536 z"
         id="path857" />
      <path
         style="fill:#58c1f5;stroke-width:0.89856076"
         inkscape:connector-curvature="0"
         d="M 32.165176,53.459261 43.140134,30.99172 h 3.379398 l 1.611838,3.298642 1.640682,3.35874 7.720704,15.806205 -3.27804,0.01042 -6.083346,-12.455759 -1.640772,-3.358722 -1.66072,-3.399516 -9.381514,19.207528 z"
         id="path861" />
    </g>
    <g
       id="layer3"
       inkscape:label="cubito"
       transform="translate(-304.35694,134.77995)" />
    <g
       id="layer2"
       inkscape:label="logo"
       transform="matrix(0.38164989,0,0,0.38164989,-8.0438429,259.46427)">
      <text
         xml:space="preserve"
         style="font-style:normal;font-variant:normal;font-weight:normal;font-stretch:normal;font-size:28.58129311px;line-height:1.25;font-family:'LONDON TWO';-inkscape-font-specification:'LONDON TWO';letter-spacing:0px;word-spacing:0px;fill:#000000;fill-opacity:1;stroke:none;stroke-width:0.71453232"
         x="54.774685"
         y="90.167221"
         id="text903"><tspan
           sodipodi:role="line"
           id="tspan901"
           x="54.774685"
           y="90.167221"
           style="font-style:normal;font-variant:normal;font-weight:500;font-stretch:normal;font-family:Poppins;-inkscape-font-specification:'Poppins Medium';stroke-width:0.71453232">alkyBank</tspan></text>
      <path
         style="opacity:1;fill:#58d7a0;fill-opacity:1;stroke:none;stroke-width:1.27999997;stroke-miterlimit:4;stroke-dasharray:none;stroke-opacity:1"
         d="m 33.3237,67.635232 c -6.172209,0.01352 -10.972457,0.09351 -10.972457,0.19482 v 22.067387 c 0,0.0077 0.03329,0.01528 0.0863,0.02274 z m 3.384806,0 1.609204,3.293339 1.640727,3.358451 7.636226,15.633155 c 0.05301,-0.0075 0.0863,-0.01505 0.0863,-0.02274 V 67.830052 c 0,-0.101308 -4.800249,-0.1813 -10.972457,-0.19482 z m -1.692403,3.254581 -9.3493,19.141985 c 2.313519,0.04021 5.62211,0.06563 9.3493,0.06563 3.727703,0 7.036262,-0.02541 9.349816,-0.06563 L 38.31771,77.648057 36.676983,74.289089 Z"
         id="rect912"
         inkscape:connector-curvature="0" />
    </g>
  </g>
</svg>
